<svg id="eaEZ0LeSj9u1" xmlns="http://www.w3.org/2000/svg" xmlns:xlink="http://www.w3.org/1999/xlink" viewBox="0 0 1084 550"
shape-rendering="geometricPrecision" text-rendering="geometricPrecision" preserveAspectRatio="xMidYMid" width="1084" height="550">
    <style><![CDATA[
        #eaEZ0LeSj9u2_to {animation: eaEZ0LeSj9u2_to__to 7000ms linear infinite normal forwards}@keyframes eaEZ0LeSj9u2_to__to { 0% {transform: translate(929.790652px,172.042412px)} 100% {transform: translate(929.790652px,-408.428786px)}}
        #eaEZ0LeSj9u29_to {animation: eaEZ0LeSj9u29_to__to 7000ms linear infinite normal forwards}@keyframes eaEZ0LeSj9u29_to__to { 0% {transform: translate(949.218265px,623.889127px)} 100% {transform: translate(949.218265px,43.417929px)}}
        #eaEZ0LeSj9u80_to {animation: eaEZ0LeSj9u80_to__to 7000ms linear infinite normal forwards}@keyframes eaEZ0LeSj9u80_to__to { 0% {transform: translate(961.276874px,1065.279859px)} 100% {transform: translate(961.276874px,484.808661px)}}
    ]]></style>
    <defs>
        <filter id="blur" x="-50%" y="-50%" width="200%" height="200%">
            <feGaussianBlur stdDeviation="3" />
        </filter>
        <filter id="blur2" x="-50%" y="-50%" width="200%" height="200%">
            <feGaussianBlur stdDeviation="1" />
        </filter>
    </defs>
    <g id="eaEZ0LeSj9u2_to" transform="translate(929.790652,172.042412)">
        <g transform="translate(-929.790652,-432.873398)">
            <circle r="13.0633" transform="translate(991.76 572.119)" fill="#dbebfa"/>
            <circle filter="url(#blur)" r="5.89299" transform="translate(1820 310.738)" fill="#dbebfa"/>
            <circle filter="url(#blur)" r="5.91402" transform="translate(837.103 292.109)" fill="#007fbd"/>
            <circle filter="url(#blur)" r="4.18551" transform="translate(1596.68 314.743)" fill="#dbebfa"/>
            <circle r="12.7892" transform="translate(488.747 492.194)" fill="#007fbd"/>
            <circle filter="url(#blur2)" r="6.03739" transform="translate(505.411 448.464)" fill="#dbebfa"/>
            <circle filter="url(#blur2)" r="6.8383" transform="translate(1669.63 519.974)" fill="#dbebfa"/>
            <circle filter="url(#blur2)" r="6.51498" transform="translate(552.068 476.03)" fill="#007fbd"/>
            <circle filter="url(#blur2)" r="6.36452" transform="translate(1645.72 388.443)" fill="#004d73"/>
            <circle filter="url(#blur2)" r="6.21592" transform="translate(812.262 527.493)" fill="#004d73"/>
            <circle r="13.385" transform="translate(1572.49 406.833)" fill="#dbebfa"/>
            <circle r="11.5176" transform="translate(48.3664 455.814)" fill="#dbebfa"/>
            <circle filter="url(#blur2)" r="6.80847" transform="translate(131.658 290.937)" fill="#dbebfa"/>
            <circle r="13.1954" transform="translate(1840.7 368.405)" fill="#007fbd"/>
            <circle r="15.6757" transform="translate(21.3618 385.948)" fill="#dbebfa"/>
            <circle filter="url(#blur2)" r="7.55709" transform="translate(148.083 492.035)" fill="#dbebfa"/>
            <circle filter="url(#blur2)" r="8.25692" transform="translate(90.9669 342.278)" fill="#004d73"/>
            <circle r="13.1303" transform="translate(868.149 477.939)" fill="#007fbd"/>
            <circle filter="url(#blur2)" r="8.84515" transform="translate(1634.17 379.28)" fill="#004d73"/>
            <circle r="13.2955" transform="translate(1248.41 293.86)" fill="#dbebfa"/>
            <circle filter="url(#blur)" r="4.39755" transform="translate(1505.38 446.691)" fill="#007fbd"/>
            <circle r="14.7547" transform="translate(1197.2 488.753)" fill="#dbebfa"/>
            <circle r="15.1787" transform="translate(1491.39 365.461)" fill="#004d73"/>
            <circle filter="url(#blur)" r="4.16209" transform="translate(184.248 396.903)" fill="#dbebfa"/>
            <circle r="12.7996" transform="translate(872.531 300.442)" fill="#dbebfa"/>
            <circle filter="url(#blur2)" r="8.21226" transform="translate(1570.03 522.437)" fill="#004d73"/>
        </g>
    </g>
    <g id="eaEZ0LeSj9u29_to" transform="translate(949.218265,623.889127)">
        <g transform="translate(-949.218264,-299.537801)">
            <circle r="13.0633" transform="translate(991.76 572.119)" fill="#dbebfa"/>
            <circle r="11.8781" transform="translate(1604.32 25.7714)" fill="#dbebfa"/>
            <circle filter="url(#blur)" r="5.89299" transform="translate(1820 310.738)" fill="#dbebfa"/>
            <circle filter="url(#blur)" r="5.91402" transform="translate(837.103 292.109)" fill="#007fbd"/>
            <circle filter="url(#blur)" r="4.18551" transform="translate(1596.68 314.743)" fill="#dbebfa"/>
            <circle r="13.371" transform="translate(1506.53 53.8734)" fill="#004d73"/>
            <circle r="12.7892" transform="translate(488.747 492.194)" fill="#007fbd"/>
            <circle r="11.7694" transform="translate(1558.46 267.972)" fill="#004d73"/>
            <circle filter="url(#blur2)" r="7.01741" transform="translate(1774.71 218.528)" fill="#004d73"/>
            <circle filter="url(#blur2)" r="6.03739" transform="translate(505.411 448.464)" fill="#dbebfa"/>
            <circle filter="url(#blur2)" r="6.8383" transform="translate(1669.63 519.974)" fill="#dbebfa"/>
            <circle filter="url(#blur2)" r="6.51498" transform="translate(552.068 476.03)" fill="#007fbd"/>
            <circle filter="url(#blur2)" r="6.36452" transform="translate(1645.72 388.443)" fill="#004d73"/>
            <circle filter="url(#blur2)" r="6.21592" transform="translate(812.262 527.493)" fill="#004d73"/>
            <circle r="12.198" transform="translate(42.0013 207.621)" fill="#004d73"/>
            <circle r="13.385" transform="translate(1572.49 406.833)" fill="#dbebfa"/>
            <circle filter="url(#blur2)" r="6.26826" transform="translate(771.502 87.6478)" fill="#007fbd"/>
            <circle r="12.6884" transform="translate(1389.26 139.077)" fill="#004d73"/>
            <circle filter="url(#blur2)" r="6.0331" transform="translate(1531.97 59.8649)" fill="#007fbd"/>
            <circle filter="url(#blur2)" r="7.35778" transform="translate(1449.66 24.4996)" fill="#dbebfa"/>
            <circle r="11.5176" transform="translate(48.3664 455.814)" fill="#dbebfa"/>
            <circle filter="url(#blur2)" r="8.22747" transform="translate(1567.39 201.582)" fill="#dbebfa"/>
            <circle r="15.3985" transform="translate(1215.04 219.909)" fill="#dbebfa"/>
            <circle filter="url(#blur2)" r="7.85623" transform="translate(628.069 191.732)" fill="#007fbd"/>
            <circle filter="url(#blur2)" r="6.80847" transform="translate(131.658 290.937)" fill="#dbebfa"/>
            <circle r="15.0687" transform="translate(154.937 53.2052)" fill="#dbebfa"/>
            <circle r="13.1954" transform="translate(1840.7 368.405)" fill="#007fbd"/>
            <circle r="11.2389" transform="translate(479.36 164.027)" fill="#007fbd"/>
            <circle r="14.9281" transform="translate(1826.25 115.902)" fill="#dbebfa"/>
            <circle r="10.2638" transform="translate(1436.81 89.1611)" fill="#004d73"/>
            <circle r="15.6757" transform="translate(21.3618 385.948)" fill="#dbebfa"/>
            <circle filter="url(#blur2)" r="7.55709" transform="translate(148.083 492.035)" fill="#dbebfa"/>
            <circle filter="url(#blur2)" r="8.25692" transform="translate(90.9669 342.278)" fill="#004d73"/>
            <circle r="13.1303" transform="translate(868.149 477.939)" fill="#007fbd"/>
            <circle filter="url(#blur2)" r="8.84515" transform="translate(1634.17 379.28)" fill="#004d73"/>
            <circle r="10.4607" transform="translate(483.566 89.1317)" fill="#dbebfa"/>
            <circle filter="url(#blur)" r="5.26351" transform="translate(1842.19 101.06)" fill="#007fbd"/>
            <circle r="12.2805" transform="translate(1880.47 35.9784)" fill="#dbebfa"/>
            <circle r="13.2955" transform="translate(1248.41 293.86)" fill="#dbebfa"/>
            <circle filter="url(#blur)" r="4.39755" transform="translate(1505.38 446.691)" fill="#007fbd"/>
            <circle r="14.7547" transform="translate(1197.2 488.753)" fill="#dbebfa"/>
            <circle r="13.18" transform="translate(1357 145.401)" fill="#dbebfa"/>
            <circle filter="url(#blur2)" r="7.4705" transform="translate(1707.12 239.138)" fill="#004d73"/>
            <circle r="15.1787" transform="translate(1491.39 365.461)" fill="#004d73"/>
            <circle r="15.8366" transform="translate(1700.05 29.7394)" fill="#007fbd"/>
            <circle filter="url(#blur)" r="4.16209" transform="translate(184.248 396.903)" fill="#dbebfa"/>
            <circle r="12.7996" transform="translate(872.531 300.442)" fill="#dbebfa"/>
            <circle filter="url(#blur)" r="5.43694" transform="translate(818.308 275.975)" fill="#004d73"/>
            <circle r="9.54987" transform="translate(1144.7 71.107)" fill="#004d73"/>
            <circle filter="url(#blur2)" r="8.21226" transform="translate(1570.03 522.437)" fill="#004d73"/>
        </g>
    </g>
    <g id="eaEZ0LeSj9u80_to" transform="translate(961.276874,1065.279859)">
        <g transform="translate(-961.276872,-160.524388)">
            <circle r="11.8781" transform="translate(1604.32 25.7714)" fill="#dbebfa"/>
            <circle r="13.371" transform="translate(1506.53 53.8734)" fill="#004d73"/>
            <circle r="11.7694" transform="translate(1558.46 267.972)" fill="#004d73"/>
            <circle filter="url(#blur2)" r="7.01741" transform="translate(1774.71 218.528)" fill="#004d73"/>
            <circle r="12.198" transform="translate(42.0013 207.621)" fill="#004d73"/>
            <circle filter="url(#blur2)" r="6.26826" transform="translate(771.502 87.6478)" fill="#007fbd"/>
            <circle r="12.6884" transform="translate(1389.26 139.077)" fill="#004d73"/>
            <circle filter="url(#blur2)" r="6.0331" transform="translate(1531.97 59.8649)" fill="#007fbd"/>
            <circle filter="url(#blur2)" r="7.35778" transform="translate(1449.66 24.4996)" fill="#dbebfa"/>
            <circle filter="url(#blur2)" r="8.22747" transform="translate(1567.39 201.582)" fill="#dbebfa"/>
            <circle r="15.3985" transform="translate(1215.04 219.909)" fill="#dbebfa"/>
            <circle filter="url(#blur2)" r="7.85623" transform="translate(628.069 191.732)" fill="#007fbd"/>
            <circle r="15.0687" transform="translate(154.937 53.2052)" fill="#dbebfa"/>
            <circle r="11.2389" transform="translate(479.36 164.027)" fill="#007fbd"/>
            <circle r="14.9281" transform="translate(1826.25 115.902)" fill="#dbebfa"/>
            <circle r="10.2638" transform="translate(1436.81 89.1611)" fill="#004d73"/>
            <circle r="10.4607" transform="translate(483.566 89.1317)" fill="#dbebfa"/>
            <circle filter="url(#blur)" r="5.26351" transform="translate(1842.19 101.06)" fill="#007fbd"/>
            <circle r="12.2805" transform="translate(1880.47 35.9784)" fill="#dbebfa"/>
            <circle r="13.2955" transform="translate(1248.41 293.86)" fill="#dbebfa"/>
            <circle r="13.18" transform="translate(1357 145.401)" fill="#dbebfa"/>
            <circle filter="url(#blur2)" r="7.4705" transform="translate(1707.12 239.138)" fill="#004d73"/>
            <circle r="15.8366" transform="translate(1700.05 29.7394)" fill="#007fbd"/>
            <circle filter="url(#blur)" r="5.43694" transform="translate(818.308 275.975)" fill="#004d73"/>
            <circle r="9.54987" transform="translate(1144.7 71.107)" fill="#004d73"/>
        </g>
    </g>
</svg>
